<svg xmlns="http://www.w3.org/2000/svg" xmlns:xlink="http://www.w3.org/1999/xlink" width="53" height="52" stroke="#000" stroke-linecap="round" stroke-linejoin="round" fill="#fff" fill-rule="evenodd">
    <defs >
        <path id="B" d="M19.27 23.06h-2.56l.39-3.17c-.38-.27-.62-.69-.62-1.18 0-.8.68-1.45 1.51-1.45s1.51.65 1.51 1.45c0 .49-.25.91-.62 1.18l.39 3.17z"/>
    </defs>
    <g fill="#000">
        <g stroke="none">
            <path d="M21.68 14.21h0m-8.59 11.95h0"/>
            <path d="M23.18 32.89l11.2-8.78V5.28c0-1.83-.19-2.5-.55-3.17S32.95.92 32.28.56 30.94.01 29.11.01H6.77C4.94.01 4.27.2 3.6.56s-1.19.88-1.55 1.55-.55 1.34-.55 3.17v22.34c0 1.83.19 2.5.55 3.17s.88 1.19 1.55 1.55 1.34.55 3.17.55zm3.4-18.14c.32 0 .58.26.58.58V27.7c0 .33-.26.59-.58.59H9.3c-.32 0-.59-.26-.59-.59V15.32c0-.32.27-.58.59-.58h2.34l.02-4.58c.12-1.51.91-3.02 2.12-4.04 1.18-1 2.58-1.51 4.16-1.51h.08a4.9 4.9 0 0 1 .54.03c2.99.24 5.48 2.71 5.67 5.61.02.26.01.47 0 .89l-.02 1.06a1.1 1.1 0 0 1-1.12 1.09c-.3 0-.58-.12-.78-.33s-.32-.5-.31-.79l.02-1.09v-.68C21.9 8.56 20.3 7 18.38 6.85L18 6.83c-1.07-.01-1.99.31-2.79.98-.77.65-1.27 1.6-1.34 2.53l-.02 4.4z"/>
            <use xlink:href="#B" fill-rule="nonzero"/>
        </g>
        <g stroke="none">
            <path d="M27.5 29.01l1-11 19.19-.14c1.84 0 2.51.19 3.19.55.67.36 1.2.89 1.56 1.57.36.67.56 1.34.56 3.19V45.7c0 1.84-.19 2.51-.56 3.19a3.8 3.8 0 0 1-1.56 1.56c-.68.37-1.35.56-3.19.56H25.17c-1.85 0-2.52-.19-3.19-.56a3.7 3.7 0 0 1-1.57-1.56c-.36-.68-.55-1.35-.55-3.19V30.73zm1.63-.78c-.3.14-.49.43-.49.76v4.75c0 4.79 3.32 9.22 7.76 10.3.13.04.26.04.39 0 4.44-1.08 7.76-5.51 7.76-10.3v-4.75c0-.33-.2-.62-.49-.76l-7.13-3.16c-.01-.01-.03-.01-.04-.02-.19-.07-.4-.07-.59 0-.01.01-.03.01-.04.02z"/>
            <use xlink:href="#B" x="18.45" y="14.2"/>
        </g>
    </g>

</svg>