<svg xmlns="http://www.w3.org/2000/svg" width="50" height="50" stroke="none" stroke-linecap="round" stroke-linejoin="round" fill="#000" fill-rule="evenodd">
    <path d="M17.28 29.9q11.21-.32 12.37-12.62h14.51c1.77 0 2.42.19 3.07.53a3.6 3.6 0 0 1 1.52 1.52c.35.65.53 1.3.53 3.08v21.75c0 1.78-.19 2.43-.53 3.08-.35.64-.87 1.16-1.52 1.51-.65.34-1.3.53-3.07.53H22.41c-1.78 0-2.43-.19-3.08-.53a3.7 3.7 0 0 1-1.52-1.52c-.35-.65-.53-1.3-.53-3.07zm12.14 7.07v-5.59l7.49 7.35c.5.49 1.31.49 1.82 0a1.3 1.3 0 0 0 .37-.89c0-.34-.14-.66-.38-.89l-7.48-7.34h5.69c.71 0 1.29-.57 1.29-1.27 0-.69-.59-1.26-1.29-1.26h-8.8c-.16 0-.33.04-.49.1-.31.15-.56.37-.69.68-.07.15-.1.32-.1.49v8.63c0 .69.57 1.26 1.28 1.26.72 0 1.29-.57 1.29-1.27z"/>
    <path d="M32.06 19.19q-13.5-.05-12.54 12.87H5.13c-1.78 0-2.43-.19-3.08-.53a3.7 3.7 0 0 1-1.52-1.52c-.35-.65-.53-1.3-.53-3.08V5.13C0 3.35.19 2.7.53 2.05.88 1.41 1.41.88 2.05.53 2.7.19 3.35 0 5.13 0h21.8c1.78 0 2.43.19 3.08.53.64.35 1.17.88 1.52 1.52.35.66.53 1.3.53 3.09zm-12.17-6.86v5.6l-7.49-7.36c-.51-.49-1.32-.49-1.83 0a1.3 1.3 0 0 0-.37.89c0 .34.14.66.38.9l7.5 7.35h-5.71c-.71 0-1.29.57-1.29 1.27s.59 1.26 1.29 1.26h8.82c.16 0 .33-.03.49-.1.31-.14.56-.37.69-.68.07-.15.1-.32.1-.48v-8.65c0-.7-.57-1.26-1.28-1.26-.72 0-1.3.56-1.3 1.26z"/>
    <path d="M20.44 22.74q2.15.14 2.13-2.04.76-1.44.74-3.67 3.62-1.75 8.73-1.97v9.69q-7.45-.33-6.65 7.28H14.62q.35-5.08 2.18-8.64 2.18.04 3.64-.65zm7.86-1.25c-.35.35-.93.35-1.28 0-.36-.36-.36-.93 0-1.29.35-.35.93-.35 1.28 0 .36.36.36.93 0 1.29zm-3.36 3.36c-.35.36-.93.36-1.28 0-.36-.35-.36-.93 0-1.28.35-.35.93-.35 1.28 0 .36.35.36.93 0 1.28zm-3.36 3.37c-.36.35-.93.35-1.29 0-.35-.35-.35-.93 0-1.3.36-.35.93-.35 1.29 0 .35.35.35.93 0 1.3z"/>
</svg>