<svg xmlns="http://www.w3.org/2000/svg" width="51" height="51" stroke="#000" stroke-linecap="round" stroke-linejoin="round" fill="#fff" fill-rule="evenodd">
    <path d="M31.52 28.01h0m-28 0h0" fill="#8fbc5d" stroke="none"/>
    <path d="M29.41.38c-.44.23-.81.6-1.04 1.04-.24.45-.37.89-.37 2.11v14.96c0 1.22.13 1.66.37 2.12.23.44.6.8 1.04 1.04.45.23.89.36 2.11.36h14.96c1.22 0 1.66-.12 2.11-.36s.81-.6 1.04-1.04c.24-.45.37-.9.37-2.12V3.54c0-1.23-.12-1.67-.37-2.12-.23-.44-.6-.81-1.04-1.04-.45-.24-.89-.37-2.11-.37H31.52c-1.22 0-1.66.13-2.11.37zM45.37 5.7l.89-.5.91-.49c.02.02-.04 4.72-.07 5.88l-.05.71c-.11-.03-5.65-3.36-5.64-3.38.01-.01.49-.28 1.07-.61l1.06-.6c.02-.02-.27-.3-.57-.54-.87-.71-1.91-1.15-3.02-1.32-.71-.11-1.72-.05-2.46.14a6.3 6.3 0 0 0-4.47 4.51 6.3 6.3 0 0 0 .78 4.85c1 1.56 2.56 2.56 4.42 2.84a7.7 7.7 0 0 0 2.09-.06c.49-.11.99-.27 1.43-.48a6.3 6.3 0 0 0 3.06-3.18c.06-.14.08-.17.14-.15.04.01.45.17.92.35.79.31.86.35.85.41-.02.12-.43.95-.65 1.29a7.1 7.1 0 0 1-1.17 1.45c-.73.74-1.32 1.16-2.23 1.61a8.1 8.1 0 0 1-2.52.76c-.45.07-1.65.08-2.08.02-1.9-.26-3.53-1.06-4.85-2.39a8.2 8.2 0 0 1-2.32-4.67c-.08-.52-.08-1.74 0-2.26a8.2 8.2 0 0 1 2.32-4.67 8.1 8.1 0 0 1 3.35-2.06c.6-.19 1.12-.29 1.92-.37.51-.05 1.53.01 2.11.13a8.2 8.2 0 0 1 4.57 2.55zM3.53 0h14.95c1.23 0 1.68.13 2.12.37.45.23.81.59 1.04 1.04.24.44.37.89.37 2.12v14.95c0 1.23-.13 1.68-.37 2.12-.23.45-.59.81-1.04 1.04-.44.24-.89.37-2.12.37H3.53c-1.23 0-1.68-.13-2.12-.37-.45-.23-.81-.59-1.04-1.04-.24-.44-.37-.89-.37-2.12V3.53C0 2.3.13 1.85.37 1.41.6.96.96.6 1.41.37 1.85.13 2.3 0 3.53 0zm9.79 17.96h1.55v-1.55h-1.55v1.55zm3.09-9.27h1.55V7.14h-1.55v1.55zM4.05 5.6v10.81c0 .85.7 1.55 1.55 1.55h3.09v-1.55H5.6V5.6h3.09V4.05H5.6c-.85 0-1.55.7-1.55 1.55zm12.36-1.55V5.6h1.55c0-.85-.7-1.55-1.55-1.55zm-6.18 15.46h1.55v-17h-1.55v17zm6.18-4.64h1.55v-1.55h-1.55v1.55zM13.32 5.6h1.55V4.05h-1.55V5.6zm3.09 6.18h1.55v-1.55h-1.55v1.55zm0 6.18c.85 0 1.55-.7 1.55-1.55h-1.55v1.55zm12.53 23.42h1.55v-6.19c0-.85-.7-1.54-1.55-1.54h-6.18v1.54h6.18v6.19zm-7.73 1.54V30.56h-1.54v3.09h-3.09v1.54h3.09v7.73c0 .85.69 1.55 1.54 1.55h7.73v3.09h1.55v-3.09h3.09v-1.55H21.21zM0 46.59V31.55c0-1.26.13-1.68.37-2.13.23-.44.6-.81 1.04-1.04.45-.24.9-.37 2.12-.37h43.09c1.26 0 1.68.13 2.13.37.44.23.8.6 1.04 1.04.24.45.37.9.37 2.13v15.04c0 1.26-.13 1.68-.37 2.13a2.6 2.6 0 0 1-1.04 1.04c-.48.22-.92.34-2.13.34H3.51c-1.2 0-1.65-.12-2.1-.36a2.5 2.5 0 0 1-1.04-1.05c-.24-.45-.37-.89-.37-2.1z" stroke="none" fill="#000"/>
</svg>