<svg xmlns="http://www.w3.org/2000/svg" width="50" height="50" stroke="none" stroke-linecap="round" stroke-linejoin="round" fill="#000" fill-rule="evenodd">
    <path d="M19.22 32.06Q18.5 18.93 32.06 18.8V5.14c0-1.79-.18-2.44-.53-3.09-.34-.64-.88-1.17-1.52-1.52-.65-.34-1.3-.53-3.08-.53H5.14C3.35 0 2.71.18 2.05.53 1.41.88.88 1.41.53 2.05.19 2.7 0 3.35 0 5.14v21.79c0 1.78.18 2.43.53 3.08a3.7 3.7 0 0 0 1.52 1.52c.65.34 1.3.53 3.09.53zM10.88 21c-.72 0-1.29-.57-1.29-1.27v-8.64c0-.17.03-.34.1-.49.13-.31.38-.54.7-.68.15-.06.32-.1.49-.1h8.81c.7 0 1.29.57 1.29 1.27s-.58 1.26-1.29 1.26h-5.7l7.49 7.36c.24.23.38.55.38.89 0 .33-.13.65-.37.89-.51.49-1.32.49-1.82 0l-7.5-7.36v5.6c0 .7-.58 1.27-1.29 1.27z"/>
    <path d="M29.27 17.25q-.64 11.6-12.02 12.05v14.88c0 1.78.18 2.43.53 3.08a3.7 3.7 0 0 0 1.52 1.52c.65.34 1.3.53 3.08.53h21.8c1.78 0 2.43-.18 3.08-.53.65-.34 1.18-.88 1.52-1.52.34-.65.53-1.3.53-3.08V22.39c0-1.79-.18-2.43-.53-3.09-.34-.64-.88-1.17-1.52-1.52-.65-.34-1.3-.53-3.08-.53zm7.87 12.33v5.6l-7.49-7.36c-.51-.49-1.32-.49-1.83 0-.23.24-.37.56-.37.9 0 .33.14.65.38.89l7.5 7.35h-5.71c-.71 0-1.29.57-1.29 1.27s.59 1.26 1.29 1.26h8.82c.17 0 .33-.03.49-.09.31-.15.57-.38.69-.69.08-.15.1-.32.1-.48v-8.65c0-.7-.57-1.26-1.28-1.26-.72 0-1.3.56-1.3 1.26z"/>
    <path d="M32.08 24.78q-7.45-.33-6.65 7.28H14.66q.35-5.08 2.18-8.64 6.57.13 6.51-6.36 3.62-1.75 8.73-1.97zm-3.74-4.55c-.35-.35-.93-.35-1.28 0-.36.36-.36.93 0 1.29.35.35.93.35 1.28 0 .36-.36.36-.93 0-1.29zm-3.36 3.37c-.35-.35-.93-.35-1.28 0-.36.35-.36.93 0 1.28.35.36.93.36 1.28 0 .36-.35.36-.93 0-1.28zm-3.36 3.35c-.36-.35-.93-.35-1.29 0-.35.37-.35.95 0 1.3.36.35.93.35 1.29 0 .35-.37.35-.95 0-1.3z"/>
</svg>