<svg xmlns="http://www.w3.org/2000/svg" width="50" height="50" stroke="#000" stroke-linecap="round" stroke-linejoin="round" fill="#fff" fill-rule="evenodd">
    <path fill="#000" d="M22.69 22.49c0 .86-1.09 3.02-2.11 4.66a.7.7 0 0 0-.07.53c.07.25.32.47.61.47h7.74c.24 0 .46-.14.56-.36.11-.22.09-.48-.05-.67-1.45-1.97-2.09-3.4-2.09-4.63s.64-2.66 2.09-4.64a5.5 5.5 0 0 0 1.01-3.19c0-3.02-2.42-5.49-5.39-5.49-2.98 0-5.4 2.45-5.4 5.49 0 1.15.35 2.27 1.02 3.2 1.44 2 2.08 3.4 2.08 4.63zm14.02 6.58H13.24c-.35 0-.63.28-.63.64v6.46c0 .35.28.64.63.64h23.44c.35 0 .63-.29.63-.64v-6.46c0-.36-.28-.64-.63-.64zm-3.59 8.69H16.86c-.35 0-.64.28-.64.64v.73c0 .35.28.64.64.64h16.26c.35 0 .63-.29.63-.64v-.73c0-.36-.28-.64-.63-.64zM8.01 0h33.98c2.79 0 3.8.29 4.81.83s1.83 1.36 2.37 2.37.83 2.02.83 4.81v33.98c0 2.79-.29 3.8-.83 4.81s-1.36 1.83-2.37 2.37-2.02.83-4.81.83H8.01c-2.79 0-3.8-.29-4.81-.83S1.37 47.81.83 46.8 0 44.78 0 41.99V8.01c0-2.79.29-3.8.83-4.81S2.19 1.37 3.2.83 5.22 0 8.01 0z" stroke="none"/>
</svg>