<svg xmlns="http://www.w3.org/2000/svg" width="50" height="51" stroke="none" stroke-linecap="round" stroke-linejoin="round" fill="#000" fill-rule="evenodd">
    <path d="M1.41.37C.97.6.6.97.37 1.41.13 1.85 0 2.3 0 3.52v14.96c0 1.22.13 1.67.37 2.11.23.45.6.81 1.04 1.04.45.24.89.37 2.11.37h14.96c1.22 0 1.66-.12 2.11-.37.45-.23.81-.6 1.04-1.04.24-.44.37-.89.37-2.11V3.52c0-1.22-.12-1.66-.37-2.11-.23-.44-.6-.81-1.04-1.04C20.14.13 19.7 0 18.48 0H3.52C2.3 0 1.86.13 1.41.37zm13.13 7.22c.49 0 .88.39.88.87v5.93a.8.8 0 0 1-.07.34c-.09.21-.26.37-.48.47-.1.04-.22.06-.33.06H8.49c-.48 0-.88-.39-.88-.87s.39-.86.88-.86h3.91L7.26 8.48C7.09 8.32 7 8.1 7 7.87s.09-.45.26-.61c.34-.34.9-.34 1.25 0l5.14 5.05V8.46c0-.48.4-.87.89-.87zM48.59.37c.44.23.81.6 1.04 1.04.24.44.37.89.37 2.11v14.96c0 1.22-.12 1.67-.37 2.11-.23.45-.6.81-1.04 1.04-.45.24-.89.37-2.11.37H31.52c-1.22 0-1.66-.12-2.11-.37-.45-.23-.81-.6-1.04-1.04-.24-.44-.37-.89-.37-2.11V3.52c0-1.22.13-1.66.37-2.11.23-.44.6-.81 1.04-1.04.45-.24.89-.37 2.11-.37h14.96c1.22 0 1.66.13 2.11.37zM35.46 7.59c-.49 0-.88.39-.88.87v5.93a.8.8 0 0 0 .07.34c.09.21.26.37.48.47.1.04.22.06.33.06h6.05c.48 0 .88-.39.88-.87s-.39-.86-.88-.86H37.6l5.14-5.05c.17-.16.26-.38.26-.61s-.09-.45-.26-.61c-.34-.34-.9-.34-1.25 0l-5.14 5.05V8.46c0-.48-.4-.87-.89-.87zm13.13 42.04c.44-.23.81-.6 1.04-1.04.24-.44.37-.89.37-2.11V31.52c0-1.22-.13-1.67-.37-2.11-.23-.45-.6-.81-1.04-1.04-.45-.24-.89-.37-2.11-.37H31.52c-1.22 0-1.66.12-2.11.37-.45.23-.81.6-1.04 1.04-.24.44-.37.89-.37 2.11v14.96c0 1.22.12 1.66.37 2.11.23.44.6.81 1.04 1.04.45.24.89.37 2.11.37h14.96c1.22 0 1.66-.13 2.11-.37zm-13.13-7.22c-.49 0-.88-.39-.88-.87v-5.93a.8.8 0 0 1 .07-.34c.09-.21.26-.37.48-.47.1-.04.22-.06.33-.06h6.05c.48 0 .88.39.88.87s-.39.86-.88.86H37.6l5.14 5.05c.17.16.26.38.26.61s-.09.45-.26.61c-.34.34-.9.34-1.25 0l-5.14-5.05v3.85c0 .48-.4.87-.89.87zM1.41 49.63c-.44-.23-.81-.6-1.04-1.04-.24-.44-.37-.89-.37-2.11V31.52c0-1.22.12-1.67.37-2.11.23-.45.6-.81 1.04-1.04.45-.24.89-.37 2.11-.37h14.96c1.22 0 1.66.12 2.11.37.45.23.81.6 1.04 1.04.24.44.37.89.37 2.11v14.96c0 1.22-.13 1.66-.37 2.11-.23.44-.6.81-1.04 1.04-.45.24-.89.37-2.11.37H3.52c-1.22 0-1.66-.13-2.11-.37zm13.13-7.22c.49 0 .88-.39.88-.87v-5.93a.8.8 0 0 0-.07-.34c-.09-.21-.26-.37-.48-.47-.1-.04-.22-.06-.33-.06H8.49c-.48 0-.88.39-.88.87s.39.86.88.86h3.91l-5.14 5.05c-.17.16-.26.38-.26.61s.09.45.26.61c.34.34.9.34 1.25 0l5.14-5.05v3.85c0 .48.4.87.89.87z"/>
</svg>