<svg xmlns="http://www.w3.org/2000/svg" width="50" height="50" stroke="none" stroke-linecap="round" stroke-linejoin="round" fill="#000" fill-rule="nonzero">
    <path d="M7.73.03c-1.62.12-3.15.7-4.5 1.73-.37.28-1.15 1.05-1.43 1.42C.74 4.56.15 6.08.03 7.8a4927.8 4927.8 0 0 0 0 34.39 8.3 8.3 0 0 0 3.99 6.6 8.7 8.7 0 0 0 3.04 1.11l.38.07 17.32.01 17.68-.02a8.3 8.3 0 0 0 7.52-7.53c.03-.25.03-5.3.03-17.67l-.01-17.33-.07-.38c-.32-1.86-1.16-3.47-2.45-4.7A8.2 8.2 0 0 0 42.2.03c-.51-.04-33.95-.04-34.47 0zM29 10.6l.74.74-1.09 1.09-1.09 1.09h4.46 4.45v4.7 4.69h-1.04-1.05v-3.63-3.64h-3.41-3.41l1.09 1.09 1.09 1.09-.75.74-.74.75-2.36-2.37-2.37-2.36 2.36-2.36 2.37-2.36c.01 0 .35.34.75.74zm-8.53 7.11l.01 6.91h-4.85-4.85v-6.9l.02-6.92c.01-.01 2.19-.02 4.84-.02l4.82.01.01 6.92zM39.21 32.3v6.91h-4.83-4.83V32.3v-6.91h4.83 4.83v6.91zm-23.57-1.57v3.64h3.41 3.41l-1.08-1.08c-.6-.59-1.08-1.1-1.08-1.11 0-.04 1.42-1.46 1.46-1.46.01 0 1.08 1.06 2.37 2.35l2.36 2.35-2.37 2.37-2.36 2.36-.74-.74-.73-.73.64-.66 1.08-1.08c.24-.23.44-.43.44-.45a241.9 241.9 0 0 0-4.46-.02h-4.47v-4.68l.02-4.7a15.6 15.6 0 0 1 1.06-.02l1.03.01.01 3.65z"/>
    <path d="M12.14 17.71v5.58h3.49 3.49v-5.58-5.58h-3.49-3.49v5.58zm18.73 14.58v5.58h3.51 3.5v-5.58-5.58h-3.5-3.51v5.58z"/>
</svg>