<svg xmlns="http://www.w3.org/2000/svg" width="50" height="50" stroke="none" stroke-linecap="round" stroke-linejoin="round" fill="#fff" fill-rule="evenodd">
    <path d="M3.59.05A3.8 3.8 0 0 0 .05 3.58c-.07.56-.07 24.07 0 24.65.23 1.95 1.44 3.23 3.32 3.53.59.1 1.2.11 7.59.11h6.39l.01 6.78.06 7.09c.34 2.07 1.59 3.21 3.76 3.45.94.1 23.87.06 24.59-.05a3.8 3.8 0 0 0 3.3-2.98c.14-.62.13.12.14-12.59l-.11-13a3.8 3.8 0 0 0-3.18-3.11c-.59-.1-.96-.11-7.51-.11h-6.54l-.01-6.71c-.01-7.14-.01-6.89-.14-7.54-.34-1.69-1.64-2.83-3.46-3.05-.52-.06-24.15-.07-24.67 0M25.4 10.32c2.03.52 2.34 3.27.47 4.21-1.55.78-3.35-.41-3.26-2.14.07-1.41 1.43-2.42 2.79-2.07m-12.39 1.7c.05.04 1.04 1.68 2.2 3.64l2.16 3.59c.02.03.42-.37 1.49-1.46l1.53-1.51c.18-.07.06-.21 3.78 4.14 3.88 4.53 3.64 4.22 3.46 4.4l-.08.08-11.1.01c-8.04 0-11.12 0-11.18-.03-.1-.04-.18-.21-.14-.31a945.6 945.6 0 0 1 7.51-12.55c.06-.06.11-.08.18-.08s.13.02.19.08m21.34 20.79c.32.08.32.08 4.21 3.97l3.78 3.78.02-2.54c.02-2.23.03-2.57.07-2.71.36-1.23 2-1.38 2.55-.24l.11.23.01 2.27c.01 3.71-.03 6.5-.1 6.69-.12.36-.45.71-.81.84-.26.1-.66.11-5.05.12l-3.9.01-.17-.07c-1.11-.44-1.22-1.86-.21-2.47.3-.18.43-.19 1.69-.19l2.66-.02 1.53-.02-3.86-3.86c-4.08-4.08-3.93-3.93-4.03-4.21-.31-.92.55-1.83 1.5-1.58" fill="#040404"/>
    <path d="M24.73 10.28c.07.01.18.01.25 0 .07 0 .01-.01-.12-.01-.14 0-.2.01-.13.01m2.36 2.22c0 .08.01.11.02.07v-.15c-.01-.03-.02.01-.02.08m-4.49 0c0 .07.01.09.02.06v-.12c-.01-.03-.02 0-.02.06m3.82 1.61l-.16.16.17-.16c.09-.08.16-.16.16-.16 0-.02-.02 0-.17.16m-6.3 2.41l-.2.21.21-.2.2-.22c-.01 0-.1.1-.21.21m-1.2 1.23l-.51.52.52-.51.51-.51c0-.02-.05.03-.52.5m-1.18 1.2c-.23.23-.36.34-.39.33s-.03-.01 0 .02.1-.03.4-.33l.36-.37c-.01 0-.17.16-.37.35m9.93 5.71c0 .05.01.07.02.05v-.1c-.01-.03-.02-.01-.02.05m-20.53.25h3.63a35.4 35.4 0 0 0-1.82-.01l-1.81.01m26.01 8.24l-.08.09.09-.08c.09-.08.11-.1.09-.1-.01 0-.05.04-.1.09m-.35.86c0 .07.01.1.01.07.01-.04.01-.1 0-.13 0-.04-.01-.01-.01.06m10.88.31c.05.01.13.01.17 0 .04 0 0-.01-.09-.01-.1 0-.14.01-.08.01m-6.75 4.34l3.86 3.84-3.83-3.84-3.85-3.84c-.01 0 1.71 1.73 3.82 3.84m8.16-1.9v.66-1.31c0-.37 0-.07 0 .65m-2.7-.49l.01.37c.01-.2.01-.53 0-.74 0-.2-.01-.03-.01.37m-.03 4c0 .2.01.28.01.18.01-.1.01-.26 0-.36 0-.1-.01-.02-.01.18m2.7 2.19l.01.68v-1.39c-.01-.38-.01-.06-.01.71m-8.52.06h1.72c.47 0 .09-.01-.86-.01l-.86.01m8.08 2.28l-.11.12.12-.12c.12-.1.14-.13.12-.13-.01 0-.06.06-.13.13m-10.06.03c.05.06.1.1.11.1s-.03-.04-.08-.1c-.06-.05-.11-.1-.11-.1-.01 0 .02.05.08.1m8.51.36h.53c.15-.01.03-.01-.26-.01l-.27.01m-5.36.03h1.52c.42-.01.08-.01-.76-.01l-.76.01" fill="#bababa"/>
    <path d="M23.22 14.08l.13.11c.01 0-.03-.05-.1-.11-.06-.07-.12-.12-.12-.12-.01 0 .03.05.09.12m3.19.06l-.09.1.1-.09.09-.09c0-.03-.02-.01-.1.08m-7.24 3.33l-.23.24.24-.23c.22-.21.25-.25.23-.25-.01 0-.11.11-.24.24m-1.41 1.44l-.27.28.28-.28.28-.29c-.01 0-.13.13-.29.29m-1.47 5.99h7.48c2.06 0 .38-.01-3.73-.01l-3.75.01m26.08 12.88l.01.34v-.69c-.01-.19-.01-.03-.01.35m2.72 2.54l.01.38c.01-.21.01-.55 0-.76 0-.22-.01-.04-.01.38m-5.94 2.16h.91c.25 0 .05 0-.46 0h-.45m-4.98 1.42c0 .08 0 .11.01.06.01-.04.01-.11 0-.14-.01-.04-.01 0-.01.08m10.49.89l-.09.09.1-.08c.08-.08.1-.11.08-.11 0 0-.05.05-.09.1m-2.79.42h.91c.25-.01.05-.01-.45-.01l-.46.01m-5.8.03h.92c.25-.01.04-.01-.47-.01l-.45.01" fill="#4e4e4e"/>
    <path d="M24.79 14.76c.04.01.1.01.13 0 .04 0 .01-.01-.06-.01-.08 0-.1.01-.07.01m-5.05 2.13l-.17.18.18-.17c.1-.09.18-.18.18-.18 0-.02-.03 0-.19.17m-1.45 1.48l-.11.12.12-.11c.12-.11.14-.13.12-.13-.01 0-.06.05-.13.12m15.7 14.41c.03.01.07.01.1 0s0-.01-.05-.01c-.06 0-.08 0-.05.01m11.1 5.8l.01.27v-.54c-.01-.14-.01-.02-.01.27m-2.73.84l.01.26c.01-.14.01-.37 0-.51 0-.14-.01-.03-.01.25m-.63.55l.62.61c.01 0-.26-.27-.59-.61l-.63-.61.6.61m-6.19 2.54c.03.01.09.01.11 0 .03-.01 0-.01-.06-.01-.07 0-.09.01-.05.01m4.67 2.7h.51c.14-.01.03-.01-.25-.01l-.26.01" fill="#747474"/>
    <path d="M19.49 17.15l-.09.1.09-.09c.06-.04.1-.09.1-.09 0-.02-.03 0-.1.08m18.48 19.06l3.08 3.07c.01 0-1.37-1.38-3.05-3.07l-3.09-3.07c-.01 0 1.37 1.38 3.06 3.07m4.39 2.49c0 .13.01.19.02.12v-.25c-.01-.06-.02-.01-.02.13m2.73.63c0 .14 0 .2.01.13v-.25c-.01-.07-.01-.01-.01.12m-4.54 3.15c.04.01.1.01.13 0 .04 0 .01-.01-.06-.01-.08 0-.1.01-.07.01m.52 2.73h.25c.07-.01.01-.01-.12-.01-.14 0-.19 0-.13.01" fill="#6c6c6c"/>
</svg>