<svg xmlns="http://www.w3.org/2000/svg" width="51" height="51" stroke="#000" stroke-linecap="round" stroke-linejoin="round" fill="#fff" fill-rule="evenodd">
    <path d="M31.52 28h0m-28 0h0" fill="#8fbc5d" stroke="none"/>
    <path d="M1.41.37C.97.6.6.97.37 1.41.13 1.85 0 2.3 0 3.52v14.96c0 1.22.13 1.66.37 2.11.23.45.6.81 1.04 1.04.45.24.89.37 2.11.37h14.96c1.22 0 1.66-.12 2.11-.37.45-.23.81-.6 1.04-1.04.24-.45.37-.89.37-2.11V3.52c0-1.22-.12-1.66-.37-2.11-.23-.44-.6-.81-1.04-1.04C20.14.13 19.7 0 18.48 0H3.52C2.3 0 1.86.13 1.41.37zM17 6.21L15.79 5 11 9.79 6.21 5 5 6.21 9.79 11 5 15.79 6.21 17 11 12.21 15.79 17 17 15.79 12.21 11zm33.15 25.3v15.04c0 1.25-.12 1.67-.36 2.12a2.5 2.5 0 0 1-1.05 1.04c-.45.24-.89.37-2.12.37H3.53c-1.25 0-1.67-.12-2.12-.37-.44-.23-.81-.6-1.04-1.04-.24-.45-.37-.89-.37-2.12V31.51c0-1.25.13-1.68.37-2.12a2.5 2.5 0 0 1 1.04-1.05c.47-.21.92-.34 2.12-.34h43.11c1.21 0 1.65.13 2.1.37a2.5 2.5 0 0 1 1.05 1.04c.24.45.36.9.36 2.1zm-35.92 7.52l4.59-4.55c.16-.16.25-.38.25-.61s-.09-.45-.25-.61c-.34-.33-.89-.33-1.23 0l-5.2 5.16c-.17.16-.26.38-.26.61s.09.45.26.61l5.2 5.15c.34.34.89.34 1.22 0 .17-.16.26-.38.26-.6 0-.23-.09-.45-.26-.61zm10.9-2.58c1.44 0 2.6 1.15 2.6 2.58s-1.16 2.58-2.6 2.58-2.6-1.15-2.6-2.58 1.16-2.58 2.6-2.58zm10.9 2.58l-4.58 4.55c-.17.16-.26.38-.26.61 0 .22.09.44.26.6.33.34.88.34 1.22 0l5.2-5.16c.17-.16.26-.37.26-.6s-.09-.45-.26-.61l-5.2-5.16c-.34-.33-.89-.33-1.23 0-.16.16-.25.38-.25.61s.09.45.25.61zM29.41.37c-.44.23-.81.6-1.04 1.04-.24.45-.37.89-.37 2.11v14.96c0 1.22.13 1.66.37 2.12.23.44.6.8 1.04 1.04.45.23.89.36 2.11.36h14.96c1.22 0 1.66-.12 2.11-.36s.81-.6 1.04-1.04c.24-.45.37-.9.37-2.12V3.53c0-1.23-.12-1.67-.37-2.12-.23-.44-.6-.81-1.04-1.04C48.14.13 47.7 0 46.48 0H31.52c-1.22 0-1.66.13-2.11.37zm15.96 5.32l.89-.5.91-.49c.02.02-.04 4.72-.07 5.88l-.05.71c-.11-.03-5.65-3.36-5.64-3.38.01-.01.49-.28 1.07-.61l1.06-.6c.02-.02-.27-.3-.57-.54-.87-.71-1.91-1.15-3.02-1.32-.71-.11-1.72-.05-2.46.14a6.3 6.3 0 0 0-4.47 4.51 6.3 6.3 0 0 0 .78 4.85c1 1.56 2.56 2.56 4.42 2.84a7.7 7.7 0 0 0 2.09-.06c.49-.11.99-.27 1.43-.48a6.3 6.3 0 0 0 3.06-3.18c.06-.14.08-.17.14-.15.04.01.45.17.92.35.79.31.86.35.85.41-.02.12-.43.95-.65 1.29a7.1 7.1 0 0 1-1.17 1.45c-.73.74-1.32 1.16-2.23 1.61a8.1 8.1 0 0 1-2.52.76c-.45.07-1.65.08-2.08.02-1.9-.26-3.53-1.06-4.85-2.39a8.2 8.2 0 0 1-2.32-4.67c-.08-.52-.08-1.74 0-2.26a8.2 8.2 0 0 1 2.32-4.67 8.1 8.1 0 0 1 3.35-2.06c.6-.19 1.12-.29 1.92-.37.51-.05 1.53.01 2.11.13a8.2 8.2 0 0 1 4.57 2.55z" stroke="none" fill="#000"/>
</svg>