<svg xmlns="http://www.w3.org/2000/svg" width="43" height="56" stroke="none" stroke-linecap="round" stroke-linejoin="round" fill="#fff" fill-rule="nonzero">
    <path d="M30.48 0H1.46C.66 0 0 .66 0 1.93V55c0 .34.66 1 1.46 1h40.08c.8 0 1.46-.66 1.46-1V12.98c0-.7-.09-.92-.26-1.09L31.11.26c-.17-.17-.39-.26-.63-.26z" fill="#ccf2ff"/>
    <path d="M31 .15V12h11.85z" fill="#99e6ff"/>
    <path d="M13.02 33.33h0c-.35 0-.69-.12-.97-.33-1.04-.78-1.18-1.65-1.12-2.24.19-1.63 2.2-3.33 5.99-5.07a68.5 68.5 0 0 0 3.79-10.75c-1-2.17-1.97-4.99-1.26-6.64.24-.58.55-1.03 1.13-1.22a5.3 5.3 0 0 1 1.02-.17c.5 0 .94.65 1.26 1.05.29.37.96 1.17-.38 6.8 1.35 2.78 3.26 5.62 5.09 7.56a20.2 20.2 0 0 1 3.36-.36c1.57 0 2.51.37 2.9 1.12.32.62.19 1.35-.39 2.16-.56.78-1.32 1.19-2.22 1.19-1.21 0-2.63-.76-4.21-2.28-2.84.59-6.15 1.65-8.83 2.82a27.8 27.8 0 0 1-2.38 4.25c-1.03 1.44-1.91 2.11-2.78 2.11zm2.66-5.13c-2.14 1.2-3.01 2.19-3.07 2.74-.01.1-.04.34.43.7.15-.05 1.02-.45 2.64-3.44zm13.63-4.44c.82.62 1.02.94 1.55.94.24 0 .9-.01 1.21-.44.15-.21.21-.34.23-.41-.12-.07-.28-.2-1.17-.2-.51 0-1.14.02-1.82.11zm-7.47-6.58a69.4 69.4 0 0 1-2.67 7.56c2.09-.81 4.36-1.52 6.5-2.02-1.35-1.57-2.7-3.53-3.83-5.54zm-.6-8.47c-.1.04-1.33 1.76.09 3.22.95-2.12-.05-3.23-.09-3.22zM41.54 56H1.46C.66 56 0 55.34 0 54.54V39h43v15.54c0 .8-.66 1.46-1.46 1.46z" fill="#f44336"/>
    <path d="M10.88 53H9.24V42.92h2.9c.43 0 .85.07 1.27.21.42.13.79.34 1.13.61a3.1 3.1 0 0 1 .8.99 2.7 2.7 0 0 1 .31 1.31c0 .51-.09.97-.26 1.39-.17.41-.41.76-.72 1.04s-.69.5-1.12.66c-.44.15-.92.23-1.45.23h-1.22V53zm0-8.84v4h1.5c.2 0 .4-.04.6-.11.2-.06.38-.18.54-.33.16-.16.3-.37.4-.65s.15-.62.15-1.03c0-.17-.03-.36-.07-.57a1.8 1.8 0 0 0-.28-.62c-.14-.19-.34-.35-.6-.49-.25-.13-.59-.2-1.01-.2h-1.23zm14.84 3.52c0 .83-.09 1.54-.27 2.12a5.2 5.2 0 0 1-.68 1.48c-.27.4-.58.71-.92.94s-.67.4-.99.51a4.2 4.2 0 0 1-.88.22l-.59.05h-3.81V42.92h3.04a5.9 5.9 0 0 1 2.23.4 4.6 4.6 0 0 1 1.6 1.08 4.4 4.4 0 0 1 .95 1.52c.21.57.32 1.16.32 1.76zm-4.87 4.11c1.11 0 1.91-.35 2.4-1.06.5-.71.74-1.74.74-3.09a5.3 5.3 0 0 0-.15-1.25c-.1-.41-.29-.78-.58-1.11a3.2 3.2 0 0 0-1.17-.81 5.1 5.1 0 0 0-1.91-.31h-.96v7.63h1.63zm8.92-7.63v3.18h4.21v1.12h-4.21V53H28.1V42.92h6.3v1.24h-4.63z"/>
</svg>