<svg xmlns="http://www.w3.org/2000/svg" width="44" height="57" stroke="none" stroke-linecap="round" stroke-linejoin="round" fill="#fff" fill-rule="evenodd">
    <g fill-rule="nonzero">
        <path d="M30.48-.19H1.46C.66-.19 0 .47 0 1.74v53.07c0 .34.66 1 1.46 1h40.08c.8 0 1.46-.66 1.46-1V12.79c0-.7-.09-.92-.26-1.09L31.11.07c-.17-.17-.39-.26-.63-.26z" fill="#ccf2ff"/>
        <path d="M31-.04v11.85h11.85z" fill="#99e6ff"/>
    </g>
    <path fill="#f44336" d="M43 54.73V39.19H0v15.54c0 .8.66 1.46 1.46 1.46h40.08c.8 0 1.46-.66 1.46-1.46z"/>
    <path d="M10.88 52.81H9.24V42.73h2.9c.43 0 .85.07 1.27.21.42.13.79.34 1.13.61a3.2 3.2 0 0 1 .8.99 2.7 2.7 0 0 1 .31 1.31c0 .51-.09.97-.26 1.39-.17.41-.41.76-.72 1.04s-.69.5-1.12.66c-.44.15-.92.23-1.45.23h-1.22v3.64zm0-8.84v4h1.5c.2 0 .4-.04.6-.11.2-.06.38-.18.54-.33.16-.16.3-.37.4-.65s.15-.62.15-1.03c0-.17-.03-.36-.07-.57-.05-.22-.15-.43-.28-.62-.14-.19-.34-.35-.6-.49-.25-.13-.59-.2-1.01-.2h-1.23zm14.84 3.52c0 .83-.09 1.54-.27 2.12-.15.53-.38 1.03-.68 1.48-.27.4-.58.71-.92.94s-.67.4-.99.51a3.8 3.8 0 0 1-.88.22l-.59.05h-3.81V42.73h3.04c.76-.01 1.52.12 2.23.4.6.24 1.15.61 1.6 1.08a4.4 4.4 0 0 1 .95 1.52c.21.57.32 1.16.32 1.76zm-4.87 4.11c1.11 0 1.91-.35 2.4-1.06.5-.71.74-1.74.74-3.09a5.3 5.3 0 0 0-.15-1.25c-.1-.41-.29-.78-.58-1.11a3.2 3.2 0 0 0-1.17-.81c-.61-.22-1.26-.33-1.91-.31h-.96v7.63h1.63zm8.92-7.63v3.18h4.21v1.12h-4.21v4.54H28.1V42.73h6.3v1.24h-4.63z" fill-rule="nonzero"/>
</svg>