<svg xmlns="http://www.w3.org/2000/svg" width="43" height="56" stroke="none" stroke-linecap="round" stroke-linejoin="round" fill="#fff" fill-rule="evenodd">
    <path d="M31.11.26l11.63 11.63c.17.17.26.39.26 1.09V55c0 .35-.65 1-1.46 1H1.46C.65 56 0 55.35 0 55V1.93C0 .65.65 0 1.46 0h29.03c.23 0 .45.09.62.26z" fill="#fffbcc"/>
    <g fill-rule="nonzero">
        <path d="M31 .15V12h11.85z" fill="#fff799"/>
        <path d="M41.54 56H1.46C.66 56 0 55.34 0 54.54V39h43v15.54c0 .8-.66 1.46-1.46 1.46z" fill="#f2c613"/>
        <path d="M18.77 42.92v1.33l-4.8 7.2-.27.22h5.07V53h-6.7v-1.33l4.8-7.21.29-.21h-5.09v-1.33h6.7zm4 10.08H21.1V42.92h1.67V53zm4.14 0h-1.64V42.92h2.9c.43 0 .85.07 1.27.21.42.13.79.34 1.13.61a3.1 3.1 0 0 1 .8.99 2.7 2.7 0 0 1 .31 1.31c0 .51-.08.97-.26 1.39-.17.41-.41.76-.72 1.04s-.69.5-1.12.66c-.44.15-.92.23-1.45.23h-1.22V53zm0-8.84v4h1.5c.2 0 .4-.04.6-.11.2-.06.38-.18.54-.33.16-.16.3-.37.4-.65s.15-.62.15-1.03c0-.17-.03-.36-.07-.57a1.8 1.8 0 0 0-.28-.62c-.14-.19-.34-.35-.6-.49-.25-.13-.59-.2-1.01-.2h-1.23z"/>
        <path d="M22 24v-2h2v-2h-2v-2h2v-2h-2v-2h2v-2h-2v-2h2V8h-2V6h-2v2h-2v2h2v2h-2v2h2v2h-2v2h2v2h-2v2h2v2h-4v5a5 5 0 1 0 10 0v-5h-4zm2 5a3 3 0 1 1-6 0v-3h6v3zm-4 1h2a1 1 0 1 0 0-2h-2a1 1 0 1 0 0 2z" fill="#f2c613"/>
    </g>
</svg>