<svg xmlns="http://www.w3.org/2000/svg" width="108" height="108" stroke="#000" stroke-linecap="round" stroke-linejoin="round" fill="#fff" fill-rule="evenodd">
    <g fill="#4e8ef2" stroke="none">
        <path d="M71.47 44.88L57.09 30.5H39.12c-1.99 0-3.59 1.6-3.59 3.59v38.82c0 1.99 1.6 3.59 3.59 3.59h28.75a3.6 3.6 0 0 0 3.6-3.59z"/>
        <path d="M57.1 30.51l14.37 14.37H60.69c-1.99 0-3.59-1.6-3.59-3.59z" fill="#9cf"/>
    </g>
    <path d="M64.98 54.98c-.04-.19-.13-.36-.25-.49-.13-.14-.29-.24-.47-.29-.18-.06-.37-.06-.55-.01a1 1 0 0 0-.48.27l-4.12 4.12-4.46-1.19-1.2-4.47 4.12-4.12a1.1 1.1 0 0 0 .29-.59 1.1 1.1 0 0 0-.12-.64c-.07-.13-.17-.25-.29-.34-.13-.09-.27-.15-.41-.17a10.1 10.1 0 0 0-11.49 12.95l-7.53 7.53c-.09.09-.17.21-.22.33a1.1 1.1 0 0 0-.08.4c0 .13.03.27.08.39.05.13.13.24.22.34l5.01 5c.09.1.21.17.33.23.13.05.26.07.4.07.13 0 .27-.02.39-.07.13-.06.24-.13.34-.23l7.53-7.54a10.1 10.1 0 0 0 12.96-11.48z" fill-rule="nonzero" stroke="none"/>
</svg>