<svg xmlns="http://www.w3.org/2000/svg" width="1800" height="2303" stroke="#000" stroke-linecap="round" stroke-linejoin="round" fill="#fff" fill-rule="evenodd">
    <g fill="#4e8ef2" stroke="none">
        <path d="M1799 719.6L1079.4 0H179.9C80.24 0 0 80.24 0 179.9v1942.92c0 99.66 80.24 179.9 179.9 179.9h1439.2c99.66 0 179.9-80.24 179.9-179.9z"/>
        <path d="M1079.4 0L1799 719.6h-539.7c-99.66 0-179.9-80.24-179.9-179.9z" fill="#9cf"/>
    </g>
    <path d="M1474.22 1225.51a51.6 51.6 0 0 0-12.53-24.58 51.5 51.5 0 0 0-23.41-14.6 51.6 51.6 0 0 0-27.59-.44 51.5 51.5 0 0 0-23.86 13.85l-206.24 206.24-223.53-59.81L897 1122.4l206.25-206.25a51.6 51.6 0 0 0 8.5-61.35c-3.46-6.71-8.43-12.53-14.51-17s-13.11-7.48-20.55-8.79c-371.5-77.33-696.07 291.07-574.9 648.64L124.88 1854.3a51.8 51.8 0 0 0-11.19 16.73c-2.59 6.26-3.93 12.97-3.93 19.75 0 6.77 1.34 13.48 3.93 19.74 2.6 6.26 6.4 11.95 11.19 16.74l250.58 250.58c4.79 4.79 10.48 8.59 16.75 11.2 6.25 2.58 12.96 3.92 19.74 3.92a51.8 51.8 0 0 0 19.74-3.92 51.9 51.9 0 0 0 16.73-11.2l377.17-377.68c358.34 121.68 724.68-203.66 648.63-574.65z" fill-rule="nonzero" stroke="none"/>
</svg>